<svg id="e385facb-004d-43c8-b081-9ab9ea92cf5f" data-name="f198da04-bdb7-466b-900f-3a4c0c1bd461" xmlns="http://www.w3.org/2000/svg" viewBox="0 0 15.49 11.99"><title>arrow</title><path d="M15.49,7.7a0.51,0.51,0,0,1-.2.4,0.69,0.69,0,0,1-.46.17H7.56v3.11a0.49,0.49,0,0,1-.36.6H7.08a0.9,0.9,0,0,1-.55-0.2Q1.14,7.28.5,6.7A1.15,1.15,0,0,1,0,6,1.15,1.15,0,0,1,.5,5.27l6-5.07A0.9,0.9,0,0,1,7.08,0a0.49,0.49,0,0,1,.48.61V3.73h7.27a0.69,0.69,0,0,1,.33.08,0.77,0.77,0,0,1,.24.2,0.48,0.48,0,0,1,.09.28V7.7Z" transform="translate(0 0)" style="fill:#d5d9e8"/></svg>