<svg id="8e5c7bf4-420a-4b0c-89dc-4241939337d6" data-name="Layer 1" xmlns="http://www.w3.org/2000/svg" viewBox="0 0 17 15.44"><title>degraded</title><path d="M9.73,5.37a1.12,1.12,0,1,0-2.24,0l0.23,4h0a0.85,0.85,0,0,0,1.68.1,0.87,0.87,0,0,0,0-.1h0Zm0,6.54A1.09,1.09,0,1,0,8.63,13a1.09,1.09,0,0,0,1.09-1.09h0Zm4.56,3.51H2.72A2.67,2.67,0,0,1,.25,14.27a2.67,2.67,0,0,1,.26-2.7l5.77-10A2.67,2.67,0,0,1,8.52,0a2.67,2.67,0,0,1,2.24,1.56l5.77,10a2.67,2.67,0,0,1,.19,2.7A2.67,2.67,0,0,1,14.29,15.43Z" style="fill:#f79041"/></svg>