<svg id="5562da12-b66d-4ad5-b229-b95008385429" data-name="Layer 1" xmlns="http://www.w3.org/2000/svg" viewBox="0 0 358.97 38.97"><title>logo</title><path d="M202.7,31.66l0.7-.62A7.18,7.18,0,0,0,209,33.71c4.16,0,5.21-2.37,5.21-4.08,0-5.94-10.93-3-10.93-9.15,0-2.92,2.67-4.59,5.64-4.59a7.13,7.13,0,0,1,5.83,2.54l-0.67.62a6.18,6.18,0,0,0-5.16-2.35c-2.62,0-4.7,1.57-4.7,3.78,0,5.13,10.93,2.43,10.93,9.15,0,2-1.3,4.89-6.15,4.89A7.85,7.85,0,0,1,202.7,31.66Z" transform="translate(-0.51 -0.51)" style="fill:#506a84"/><path d="M218.31,38.54a3.25,3.25,0,0,0,1.13.22c0.86,0,1.46-.38,2.05-1.78l1.19-2.7-5.59-13.12H218l5.13,12.09,5.1-12.09h0.94L222.3,37.27a3.14,3.14,0,0,1-2.86,2.21,4.51,4.51,0,0,1-1.3-.19Z" transform="translate(-0.51 -0.51)" style="fill:#506a84"/><path d="M230.7,32.44l0.65-.59a5,5,0,0,0,4.13,1.94c2.4,0,3.86-1.29,3.86-3,0-4-8.37-1.92-8.37-6.48,0-1.92,1.62-3.46,4.43-3.46a5.35,5.35,0,0,1,4.48,2l-0.59.54a4.6,4.6,0,0,0-3.89-1.78c-2.27,0-3.62,1.19-3.62,2.73,0,3.64,8.37,1.54,8.37,6.48,0,2-1.51,3.75-4.67,3.75A5.75,5.75,0,0,1,230.7,32.44Z" transform="translate(-0.51 -0.51)" style="fill:#506a84"/><path d="M244.25,31.9v-10h-2.16V21.16h2.16V17.59h0.81v3.56h2.65v0.73h-2.65v10c0,1.11.43,1.89,1.4,1.89a2.07,2.07,0,0,0,1.54-.7l0.49,0.62a2.65,2.65,0,0,1-2,.81C245,34.52,244.25,33.52,244.25,31.9Z" transform="translate(-0.51 -0.51)" style="fill:#506a84"/><path d="M250.3,27.66c0-3.78,2.62-6.83,6.13-6.83,4,0,6,3.21,6,6.83v0.27H251.22c0.08,3.19,2.16,5.86,5.48,5.86a6,6,0,0,0,4.53-2l0.49,0.51a6.52,6.52,0,0,1-5,2.19C252.92,34.52,250.3,31.63,250.3,27.66Zm6.1-6.1c-3.35,0-5.1,3.08-5.18,5.64h10.39C261.61,24.69,260,21.56,256.4,21.56Z" transform="translate(-0.51 -0.51)" style="fill:#506a84"/><path d="M281.75,34.19V24.8c0-2-.84-3.24-2.81-3.24a5.34,5.34,0,0,0-4,2.43v10.2h-0.81V24.8c0-2-.84-3.24-2.81-3.24a5.46,5.46,0,0,0-4,2.46V34.19h-0.81v-13h0.81v2.05a5.7,5.7,0,0,1,4.18-2.37,3.22,3.22,0,0,1,3.37,2.48,5.44,5.44,0,0,1,4.29-2.48c2.38,0,3.48,1.38,3.48,4v9.39h-0.81Z" transform="translate(-0.51 -0.51)" style="fill:#506a84"/><path d="M293.34,31.66L294,31a7.18,7.18,0,0,0,5.59,2.67c4.16,0,5.21-2.37,5.21-4.08,0-5.94-10.93-3-10.93-9.15,0-2.92,2.67-4.59,5.64-4.59a7.13,7.13,0,0,1,5.83,2.54l-0.67.62a6.18,6.18,0,0,0-5.16-2.35c-2.62,0-4.7,1.57-4.7,3.78,0,5.13,10.93,2.43,10.93,9.15,0,2-1.3,4.89-6.15,4.89A7.85,7.85,0,0,1,293.34,31.66Z" transform="translate(-0.51 -0.51)" style="fill:#506a84"/><path d="M309.38,31.9v-10h-2.16V21.16h2.16V17.59h0.81v3.56h2.65v0.73h-2.65v10c0,1.11.43,1.89,1.4,1.89a2.07,2.07,0,0,0,1.54-.7l0.49,0.62a2.65,2.65,0,0,1-2,.81C310.08,34.52,309.38,33.52,309.38,31.9Z" transform="translate(-0.51 -0.51)" style="fill:#506a84"/><path d="M324.55,34.19V32.6A5.75,5.75,0,0,1,320,34.52a4.35,4.35,0,1,1,0-8.69,5.75,5.75,0,0,1,4.51,1.92V24.8c0-2.11-1.67-3.24-3.67-3.24a5,5,0,0,0-4.18,2.05l-0.62-.54a5.73,5.73,0,0,1,4.8-2.24c2.56,0,4.48,1.3,4.48,3.94v9.42h-0.81Zm0-2.4V28.55a5.28,5.28,0,0,0-4.29-2,3.63,3.63,0,1,0,0,7.23A5.28,5.28,0,0,0,324.55,31.79Z" transform="translate(-0.51 -0.51)" style="fill:#506a84"/><path d="M330.17,31.9v-10H328V21.16h2.16V17.59H331v3.56h2.65v0.73H331v10c0,1.11.43,1.89,1.4,1.89a2.07,2.07,0,0,0,1.54-.7l0.49,0.62a2.65,2.65,0,0,1-2,.81C330.87,34.52,330.17,33.52,330.17,31.9Z" transform="translate(-0.51 -0.51)" style="fill:#506a84"/><path d="M345.72,34.19v-2A6.75,6.75,0,0,1,341,34.52c-2.59,0-4.08-1.13-4.08-4.21V21.16h0.81v9.15c0,2.73,1.35,3.48,3.37,3.48a6.09,6.09,0,0,0,4.62-2.38V21.16h0.81v13h-0.81Z" transform="translate(-0.51 -0.51)" style="fill:#506a84"/><path d="M350,32.44l0.65-.59a5,5,0,0,0,4.13,1.94c2.4,0,3.86-1.29,3.86-3,0-4-8.37-1.92-8.37-6.48,0-1.92,1.62-3.46,4.43-3.46a5.35,5.35,0,0,1,4.48,2l-0.59.54a4.6,4.6,0,0,0-3.89-1.78c-2.27,0-3.62,1.19-3.62,2.73,0,3.64,8.37,1.54,8.37,6.48,0,2-1.51,3.75-4.67,3.75A5.75,5.75,0,0,1,350,32.44Z" transform="translate(-0.51 -0.51)" style="fill:#506a84"/><path d="M60.8,34.19L56.23,27H52.62v7.15H50.38v-18h7.23c3.29,0,5.67,2.11,5.67,5.42a5,5,0,0,1-4.7,5.24l4.86,7.34H60.8ZM61,21.62a3.35,3.35,0,0,0-3.62-3.43H52.62v6.88h4.72A3.39,3.39,0,0,0,61,21.62Z" transform="translate(-0.51 -0.51)" style="fill:#506a84"/><path d="M74.38,34.19V32.71a5.6,5.6,0,0,1-4.32,1.81,4.33,4.33,0,0,1-4.53-4.32,4.23,4.23,0,0,1,4.53-4.29,5.52,5.52,0,0,1,4.32,1.75V25.31c0-1.73-1.4-2.73-3.29-2.73a5.09,5.09,0,0,0-4,1.81L66.14,23a6.83,6.83,0,0,1,5.21-2.16c2.78,0,5,1.24,5,4.4v9h-2Zm0-2.75V29a4.41,4.41,0,0,0-3.56-1.59,2.87,2.87,0,1,0,0,5.7A4.35,4.35,0,0,0,74.38,31.44Z" transform="translate(-0.51 -0.51)" style="fill:#506a84"/><path d="M81,34.19V22.94H78.86V21.16H81v-1c0-2.67,1.48-4.24,3.78-4.24a3.75,3.75,0,0,1,2.75,1l-0.84,1.3a2.34,2.34,0,0,0-1.59-.62c-1.35,0-2.08.89-2.08,2.56v1h2.65v1.78H83V34.19H81Zm7.67,0V22.94H86.53V21.16h2.16v-1c0-2.7,1.54-4.24,3.78-4.24a4.12,4.12,0,0,1,2,.43L94,17.89a2.18,2.18,0,0,0-1.16-.3c-1.35,0-2.08.89-2.08,2.56v1h2.65v1.78H90.71V34.19h-2Zm7.07,0v-18h2v18h-2Z" transform="translate(-0.51 -0.51)" style="fill:#506a84"/><path d="M101.08,27.66a6.52,6.52,0,0,1,6.42-6.83c3.94,0,6.26,3.08,6.26,7v0.51H103.24a4.57,4.57,0,0,0,4.67,4.51,5.67,5.67,0,0,0,4-1.67l1,1.32a7.19,7.19,0,0,1-5.18,2A6.47,6.47,0,0,1,101.08,27.66Zm6.4-5.16a4.34,4.34,0,0,0-4.27,4.32h8.56A4.22,4.22,0,0,0,107.48,22.51Z" transform="translate(-0.51 -0.51)" style="fill:#506a84"/><path d="M116.28,27.66c0-3.86,2.62-6.83,6.51-6.83a5.58,5.58,0,0,1,4.78,2.27l-1.35,1.21a3.84,3.84,0,0,0-3.32-1.67c-2.75,0-4.51,2.13-4.51,5s1.75,5,4.51,5a3.93,3.93,0,0,0,3.32-1.7l1.35,1.24a5.58,5.58,0,0,1-4.78,2.27C118.9,34.52,116.28,31.52,116.28,27.66Z" transform="translate(-0.51 -0.51)" style="fill:#506a84"/><path d="M129.67,27.66c0-3.78,2.48-6.83,6.45-6.83s6.45,3,6.45,6.83-2.48,6.86-6.45,6.86S129.67,31.44,129.67,27.66Zm10.77,0c0-2.65-1.54-5-4.32-5s-4.32,2.38-4.32,5,1.54,5,4.32,5S140.44,30.33,140.44,27.66Z" transform="translate(-0.51 -0.51)" style="fill:#506a84"/><path d="M147.9,32.22v6.94h-2v-18h2V23.1a5.45,5.45,0,0,1,4.4-2.27c3.43,0,5.8,2.59,5.8,6.83s-2.37,6.86-5.8,6.86A5.45,5.45,0,0,1,147.9,32.22ZM156,27.66c0-2.89-1.57-5-4.18-5a4.82,4.82,0,0,0-3.89,2.08V30.6a4.84,4.84,0,0,0,3.89,2.11C154.4,32.71,156,30.55,156,27.66Z" transform="translate(-0.51 -0.51)" style="fill:#506a84"/><path d="M161.72,31.47V22.94h-2.16V21.16h2.16V17.59h2.05v3.56h2.65v1.78h-2.65V31c0,1,.43,1.67,1.3,1.67a1.92,1.92,0,0,0,1.38-.57L167,33.68a3.29,3.29,0,0,1-2.4.84C162.69,34.52,161.72,33.41,161.72,31.47Z" transform="translate(-0.51 -0.51)" style="fill:#506a84"/><path d="M168.5,27.66a6.52,6.52,0,0,1,6.42-6.83c3.94,0,6.26,3.08,6.26,7v0.51H170.66a4.57,4.57,0,0,0,4.67,4.51,5.67,5.67,0,0,0,4-1.67l1,1.32a7.19,7.19,0,0,1-5.18,2A6.47,6.47,0,0,1,168.5,27.66Zm6.4-5.16a4.34,4.34,0,0,0-4.27,4.32h8.56A4.22,4.22,0,0,0,174.9,22.51Z" transform="translate(-0.51 -0.51)" style="fill:#506a84"/><path d="M184.46,34.19v-13h2v2.08a5.62,5.62,0,0,1,4.35-2.37v2.08a6.61,6.61,0,0,0-.78-0.05A4.77,4.77,0,0,0,186.48,25v9.23h-2Z" transform="translate(-0.51 -0.51)" style="fill:#506a84"/><path id="3a08bf38-974e-4c57-9538-c1952c6ca8f8" data-name="cptr-eyes" d="M13.79,10.18l0.8-4.23,4.2,0.78L18,11Zm7.46,1.38,0.8-4.23,4.21,0.78-0.8,4.23Z" transform="translate(-0.51 -0.51)" style="fill:#405770"/><path id="6c5b374d-dd10-4a52-bd95-ea9b39175c03" data-name="cptr-body" d="M28.71,12.8a7,7,0,0,1-2.19,3.49,9,9,0,0,1-3.72,1.88,10.66,10.66,0,0,1-8.5-1.55,9,9,0,0,1-2.8-3.07,6.89,6.89,0,0,1-.78-4l-1.63-.3a9.59,9.59,0,0,0,.37,4.22L1.61,12.06l0,0.26L0.94,9.76l-0.43.1L1.84,15.3l0.43-.1L1.83,13.42l8.28,1.45a10.6,10.6,0,0,0,3.11,3.42A11.74,11.74,0,0,0,18,20.39a11.8,11.8,0,0,0,5.23-.27,10.55,10.55,0,0,0,4.56-2.45,9.1,9.1,0,0,0,2.56-4.58Z" transform="translate(-0.51 -0.51)" style="fill:#405770"/><polygon points="39.85 7.62 1.06 0 0.87 1 19.8 4.71 19.54 6.87 20.19 6.95 20.45 4.84 39.65 8.61 39.85 7.62" style="fill:#405770"/><polygon id="5e66662f-7473-417f-8ee7-28fd46468669" data-name="cptr-base" points="27.87 21.98 26.7 23.57 19.19 22.13 19.25 21.1 18.59 21.07 18.54 22 15.13 21.35 15.19 20.23 14.53 20.2 14.47 21.22 8.02 19.99 7.84 20.88 26.1 24.38 25.63 25.02 25.98 25.27 28.23 22.23 27.87 21.98" style="fill:#405770"/></svg>