<svg id="882eeb22-142e-4437-b312-966492044ad5" data-name="Layer 1" xmlns="http://www.w3.org/2000/svg" viewBox="0 0 17 18.06"><title>outage</title><path d="M3,0.43a0.85,0.85,0,0,0-1.47,0L0.42,1.56a0.89,0.89,0,0,0,0,1.51L6.24,9,0.42,15a0.9,0.9,0,0,0,0,1.51l1.1,1.13a0.85,0.85,0,0,0,1.47,0L8.5,12,14,17.63a0.85,0.85,0,0,0,1.47,0l1.1-1.13a0.89,0.89,0,0,0,0-1.51L10.75,9l5.82-6a0.89,0.89,0,0,0,0-1.51l-1.1-1.13A0.85,0.85,0,0,0,14,.43L8.5,6.06Z" transform="translate(0 0)" style="fill:#f15c41;fill-rule:evenodd"/></svg>